{"asset":{"version":"2.0","generator":"Babylon2Gltf2017","copyright":"2017 (c) BabylonJS"},"scene":0,"scenes":[{"nodes":[4]}],"nodes":[{"children":[1,2,3],"translation":[0.0,72.0835648,-7.62939453E-06],"rotation":[0.0,0.0,0.0,-1.0],"scale":[1.0,1.0,1.0],"name":"kdlk03"},{"mesh":0,"translation":[-134.6149,-40.08322,-0.429229736],"rotation":[0.0,0.0,0.0,-1.0],"scale":[1.0,1.0,1.0],"name":"kdlk03_hou"},{"mesh":1,"translation":[0.0,-76.36395,-0.000636390643],"rotation":[0.0,8.742278E-08,0.0,-1.0],"scale":[1.0,1.0,1.0],"name":"kdlk03"},{"mesh":2,"translation":[-6.10351563E-05,-76.36395,-0.00066691637],"rotation":[0.0,8.742278E-08,0.0,-1.0],"scale":[1.0,1.0,1.0],"name":"kdlk03_qian"},{"children":[0],"translation":[0.0,0.0,0.0],"rotation":[0.0,1.0,0.0,-4.371139E-08],"scale":[1.0,1.0,-1.0],"name":"root"}],"meshes":[{"primitives":[{"attributes":{"POSITION":1,"NORMAL":2,"TEXCOORD_0":3},"indices":0,"mode":4,"material":0}],"name":"kdlk03_hou"},{"primitives":[{"attributes":{"POSITION":5,"NORMAL":6,"TEXCOORD_0":7},"indices":4,"mode":4,"material":0}],"name":"kdlk03"},{"primitives":[{"attributes":{"POSITION":9,"NORMAL":10,"TEXCOORD_0":11},"indices":8,"mode":4,"material":0}],"name":"kdlk03_qian"}],"accessors":[{"bufferView":0,"componentType":5123,"count":240,"type":"SCALAR","name":"accessorIndices"},{"bufferView":1,"componentType":5126,"count":240,"max":[31.6035461,31.9284515,81.0987854],"min":[-31.6035461,-31.9284477,-81.09878],"type":"VEC3","name":"accessorPositions"},{"bufferView":1,"byteOffset":2880,"componentType":5126,"count":240,"type":"VEC3","name":"accessorNormals"},{"bufferView":2,"componentType":5126,"count":240,"type":"VEC2","name":"accessorUVs"},{"bufferView":0,"byteOffset":480,"componentType":5123,"count":2712,"type":"SCALAR","name":"accessorIndices"},{"bufferView":1,"byteOffset":5760,"componentType":5126,"count":2712,"max":[236.389175,148.375763,92.9871445],"min":[-236.389175,22.5859032,-92.98589],"type":"VEC3","name":"accessorPositions"},{"bufferView":1,"byteOffset":38304,"componentType":5126,"count":2712,"type":"VEC3","name":"accessorNormals"},{"bufferView":2,"byteOffset":1920,"componentType":5126,"count":2712,"type":"VEC2","name":"accessorUVs"},{"bufferView":0,"byteOffset":5904,"componentType":5123,"count":240,"type":"SCALAR","name":"accessorIndices"},{"bufferView":1,"byteOffset":70848,"componentType":5126,"count":240,"max":[185.721619,68.2090454,80.67043],"min":[122.514587,4.352146,-81.52711],"type":"VEC3","name":"accessorPositions"},{"bufferView":1,"byteOffset":73728,"componentType":5126,"count":240,"type":"VEC3","name":"accessorNormals"},{"bufferView":2,"byteOffset":23616,"componentType":5126,"count":240,"type":"VEC2","name":"accessorUVs"},{"bufferView":3,"componentType":5126,"count":31,"max":[1.0],"min":[0.0],"type":"SCALAR","name":"accessorAnimationInput"},{"bufferView":4,"componentType":5126,"count":31,"type":"VEC4","name":"accessorAnimationRotations"},{"bufferView":3,"byteOffset":124,"componentType":5126,"count":31,"max":[1.0],"min":[0.0],"type":"SCALAR","name":"accessorAnimationInput"},{"bufferView":5,"componentType":5126,"count":31,"type":"VEC3","name":"accessorAnimationPositions"},{"bufferView":3,"byteOffset":248,"componentType":5126,"count":31,"max":[1.0],"min":[0.0],"type":"SCALAR","name":"accessorAnimationInput"},{"bufferView":4,"byteOffset":496,"componentType":5126,"count":31,"type":"VEC4","name":"accessorAnimationRotations"}],"bufferViews":[{"buffer":0,"byteLength":6384,"name":"bufferViewScalar"},{"buffer":0,"byteOffset":6384,"byteLength":76608,"byteStride":12,"name":"bufferViewFloatVec3"},{"buffer":0,"byteOffset":82992,"byteLength":25536,"byteStride":8,"name":"bufferViewFloatVec2"},{"buffer":0,"byteOffset":108528,"byteLength":372,"name":"bufferViewAnimationFloatScalar"},{"buffer":0,"byteOffset":108900,"byteLength":992,"name":"bufferViewAnimationFloatVec4"},{"buffer":0,"byteOffset":109892,"byteLength":372,"name":"bufferViewAnimationFloatVec3"}],"buffers":[{"uri":"kdlk03.bin","byteLength":110264}],"materials":[{"pbrMetallicRoughness":{"baseColorFactor":[1.0,1.0,1.0,1.0],"baseColorTexture":{"index":1},"metallicFactor":0.220833078,"roughnessFactor":0.710000038},"normalTexture":{"index":0},"emissiveFactor":[0.0,0.0,0.0],"doubleSided":true,"name":"kdlk03"}],"textures":[{"sampler":0,"source":0,"name":"kdlk03.jpg"},{"sampler":1,"source":1,"name":"kdlk03_baseColor.jpg"}],"images":[{"uri":"kdlk03.jpg"},{"uri":"kdlk03_baseColor.jpg"}],"samplers":[{"magFilter":9729,"minFilter":9987,"wrapS":10497,"wrapT":10497},{"magFilter":9729,"minFilter":9987,"wrapS":10497,"wrapT":10497}],"animations":[{"channels":[{"sampler":0,"target":{"node":1,"path":"rotation"}}],"samplers":[{"input":12,"interpolation":"LINEAR","output":13}]},{"channels":[{"sampler":0,"target":{"node":3,"path":"translation"}},{"sampler":1,"target":{"node":3,"path":"rotation"}}],"samplers":[{"input":14,"interpolation":"LINEAR","output":15},{"input":16,"interpolation":"LINEAR","output":17}]}]}